<svg xmlns="http://www.w3.org/2000/svg" xmlns:xlink="http://www.w3.org/1999/xlink" viewBox="0 0 1200 1200"><defs><style>.cls-1{isolation:isolate;}.cls-2{mix-blend-mode:color-dodge;}.cls-3{fill:url(#Новый_образец_градиента_4);}.cls-4{fill:url(#linear-gradient);}.cls-5{fill:#fff;}</style><linearGradient id="Новый_образец_градиента_4" x1="599.02" y1="1119.28" x2="602.32" y2="83.38" gradientUnits="userSpaceOnUse"><stop offset="0" stop-color="#e61a00"/><stop offset="1" stop-color="#ffad00"/></linearGradient><linearGradient id="linear-gradient" x1="639.48" y1="1113.03" x2="662.58" y2="291.57" gradientUnits="userSpaceOnUse"><stop offset="0" stop-color="#ff3600"/><stop offset="0.15" stop-color="#ff5b00"/><stop offset="0.33" stop-color="#ff8200"/><stop offset="0.5" stop-color="#ffa000"/><stop offset="0.68" stop-color="#ffb600"/><stop offset="0.84" stop-color="#ffc300"/><stop offset="1" stop-color="#ffc700"/></linearGradient></defs><g class="cls-1"><g id="Слой_1" data-name="Слой 1"><image class="cls-2" width="760" height="1154" transform="translate(220 23)" xlink:href="logo_icon1.png"/><path class="cls-3" d="M636,1116.42c76.85-9.59,180.9-66.26,217.06-111.71,50.28-63.2,68.06-120,66.82-166.85-3.17,18.93-31.69,71.8-72.65,89.17,58.15-47.68,126.52-244.63,5.67-438,11.77,29.2,23.53,131.45-57.88,240,46.12-61.44,80.51-250.38-60.65-467.28,4.73,14.21,19.91,46.51.67,102.71,4-61.76-64.92-229.07-194.12-280.93,101.15,112.89,37.81,254-.19,342.74-19.45,45.44-12.43,85-14,116.53-3.16-26.83,4.06-127.74-60.19-183.2,17.19,23.06,13.58,80.74-9,114.84-31.27,47.14-160.16,149.54-87,284.57-19.76-2.92-52.33-53.6-37-115.23-63.75,88.26-3.28,207.78,29.86,237.77-60.62-17.15-84.83-87.54-83.24-103.32,0,31.57,4.37,68.64,14.58,94.43,85.85,216.87,250.75,241.64,329.25,243.71Z"/><image class="cls-2" width="461" height="945" transform="translate(416 232)" xlink:href="logo_icon2.png"/><path class="cls-4" d="M621,1115.18c-52.88-38.45-75.86-61.25-111-111-38.41-54.42-42.14-135.19-21.07-198.4,19.66-60.4,56.19-110.65,89.9-165.43s68.83-101.31,84.28-164.52c14-59,13.6-140.47-14.5-182.94,41.2,52.27,76.31,139.56,91.76,214,7,40.74,11.24,87.09,0,127.83-9.83,43.54-43.54,76.64-63.21,118.79s-24,120.73,5.49,160.06c36.53-25.28,105.48-54,113.91-124.33C887.85,982.22,630.38,1026.51,636,1116.42Z"/><path class="cls-5" d="M657.3,249.79c-13.34-21.63-34.92-44.45-27.18-28.43,5.42,11.23,28.22,47.69,38.39,58.89C679.38,292.22,667.14,265.75,657.3,249.79Z"/></g></g></svg>