<svg xmlns="http://www.w3.org/2000/svg" xmlns:xlink="http://www.w3.org/1999/xlink" viewBox="0 0 731.34 229.61"><defs><style>.cls-1{isolation:isolate;}.cls-2{fill:#fff;}.cls-3{mix-blend-mode:color-dodge;}.cls-4{fill:url(#Новый_образец_градиента_4);}.cls-5{fill:url(#linear-gradient);}</style><linearGradient id="Новый_образец_градиента_4" x1="68.17" y1="222.71" x2="68.88" y2="-0.04" gradientUnits="userSpaceOnUse"><stop offset="0" stop-color="#e61a00"/><stop offset="1" stop-color="#ffad00"/></linearGradient><linearGradient id="linear-gradient" x1="76.81" y1="221.36" x2="81.78" y2="44.72" gradientUnits="userSpaceOnUse"><stop offset="0" stop-color="#ff3600"/><stop offset="0.15" stop-color="#ff5b00"/><stop offset="0.33" stop-color="#ff8200"/><stop offset="0.5" stop-color="#ffa000"/><stop offset="0.68" stop-color="#ffb600"/><stop offset="0.84" stop-color="#ffc300"/><stop offset="1" stop-color="#ffc700"/></linearGradient></defs><g class="cls-1"><g id="Слой_1" data-name="Слой 1"><path class="cls-2" d="M224.77,80.64v43.71l53.88-53.7q3.23-3.5,7-3.5a6.22,6.22,0,0,1,4.45,1.75,5.3,5.3,0,0,1,1.83,3.89,2.89,2.89,0,0,1-.94,2L241.31,122.9l50.15,56.68a17.24,17.24,0,0,1,1.83,2.65,5.09,5.09,0,0,1,.63,2.39,6.11,6.11,0,0,1-2,4.56,7.11,7.11,0,0,1-5.14,1.93,19.65,19.65,0,0,1-3.94-.39,15.08,15.08,0,0,1-3.78-1.32,20,20,0,0,1-3.82-2.61,33.88,33.88,0,0,1-4.07-4.22l-43.27-49.85L224.77,136v43.71c0,4.1-.87,7-2.59,8.75s-4.46,2.61-8.19,2.61q-8,0-8-8.71V75.86q0-4.86,1.79-6.78c1.18-1.29,3.14-1.93,5.85-1.93q5.43,0,8.27,3.42T224.77,80.64Z"/><path class="cls-2" d="M377.67,112.06l-30,77.68q-1.69,4.26-3.69,8.92a96,96,0,0,1-4.45,9.05,80.22,80.22,0,0,1-5.39,8.37,46.51,46.51,0,0,1-6.32,7,28.4,28.4,0,0,1-7.34,4.78,20.71,20.71,0,0,1-8.44,1.75,9.66,9.66,0,0,1-6-1.84,5.46,5.46,0,0,1-2.41-4.48q0-7.86,9.41-7.86a22,22,0,0,0,8.23-1.36,15.75,15.75,0,0,0,5.9-4.14,26.37,26.37,0,0,0,4.41-7.09,87.67,87.67,0,0,0,3.7-10.2l-34.37-80.58a12.9,12.9,0,0,1-.68-1.88A8.22,8.22,0,0,1,300,108c0-3.12,2.15-4.69,6.45-4.69a13.16,13.16,0,0,1,8.1,2.86,20,20,0,0,1,6.15,8.83l22.74,57.2h.93l10.44-30.65q1.37-3.92,3.4-10.67t4.75-16.56a23.53,23.53,0,0,1,3.56-8.07,7.65,7.65,0,0,1,6.53-2.94q5.52,0,5.52,4A14.4,14.4,0,0,1,377.67,112.06Z"/><path class="cls-2" d="M415.77,117.71v43.75q0,18,14.77,18a19.91,19.91,0,0,0,7.72-1.63,25.7,25.7,0,0,0,7.08-4.4,24.17,24.17,0,0,0,5.22-6.41,15.54,15.54,0,0,0,2-7.73V115.91a26.13,26.13,0,0,1,.63-6.36,8.57,8.57,0,0,1,1.95-3.81,6.92,6.92,0,0,1,3.44-1.88,22.08,22.08,0,0,1,5.09-.51q4.08,0,5.52,2c1,1.33,1.44,3.4,1.44,6.18v72.05c0,2.74-.57,4.67-1.7,5.81s-3.05,1.71-5.77,1.71q-10.26,0-10.26-15v-1.19h-.34a33.85,33.85,0,0,1-12.35,11.82,36,36,0,0,1-18,4.4q-24.53,0-24.52-26.38V111.54c0-2.78.48-4.85,1.44-6.18s2.8-2,5.52-2q5.85,0,8.48,3.29T415.77,117.71Z"/><path class="cls-2" d="M516.58,117.71v43.75q0,18,14.76,18a19.83,19.83,0,0,0,7.72-1.63,25.75,25.75,0,0,0,7.09-4.4,24.17,24.17,0,0,0,5.22-6.41,15.64,15.64,0,0,0,2-7.73V115.91a26.06,26.06,0,0,1,.64-6.36,8.37,8.37,0,0,1,2-3.81,6.88,6.88,0,0,1,3.44-1.88,22,22,0,0,1,5.09-.51q4.07,0,5.51,2c1,1.33,1.45,3.4,1.45,6.18v72.05c0,2.74-.57,4.67-1.7,5.81s-3.06,1.71-5.77,1.71q-10.28,0-10.27-15v-1.19h-.34a33.82,33.82,0,0,1-12.34,11.82,36,36,0,0,1-18,4.4q-24.52,0-24.53-26.38V111.54c0-2.78.48-4.85,1.45-6.18s2.8-2,5.51-2q5.85,0,8.49,3.29T516.58,117.71Z"/><path class="cls-2" d="M617.38,72.53V119.4h.34q8.82-16.05,27.07-16.05A38.65,38.65,0,0,1,656.07,105a21.06,21.06,0,0,1,9.42,6Q669.57,115.3,672,123t2.54,19.84a69,69,0,0,1-2.84,20.71,41.64,41.64,0,0,1-8.19,15.1,34.59,34.59,0,0,1-13,9.27,45.4,45.4,0,0,1-17.36,3.16,61.81,61.81,0,0,1-22.4-4,31,31,0,0,1-4.83-2.26,12.55,12.55,0,0,1-3.57-3,13.52,13.52,0,0,1-2.25-4.18,18.19,18.19,0,0,1-.8-5.72V66.47q0-4.35,1.44-6.27t5.52-1.92q5.85,0,8.48,3.28T617.38,72.53Zm-.17,62.26v40.08a6.35,6.35,0,0,0,1.1,3.55,10.28,10.28,0,0,0,3.14,3,16.7,16.7,0,0,0,5,2,28.47,28.47,0,0,0,6.7.73q22.58,0,22.57-39.92a64.68,64.68,0,0,0-1.4-15,24.09,24.09,0,0,0-3.81-8.89,12.1,12.1,0,0,0-5.69-4.27,21.62,21.62,0,0,0-7-1.11,16.2,16.2,0,0,0-7,1.75,26.4,26.4,0,0,0-6.66,4.57,25.79,25.79,0,0,0-5,6.37A14.72,14.72,0,0,0,617.21,134.79Z"/><path class="cls-2" d="M699.6,88.84a10.52,10.52,0,0,1-3.14-7.69,10.65,10.65,0,0,1,.85-4.14,11,11,0,0,1,2.29-3.45,11.66,11.66,0,0,1,3.4-2.35,9.79,9.79,0,0,1,4.16-.9,9.89,9.89,0,0,1,4.11.9,11.34,11.34,0,0,1,3.44,2.35A11.46,11.46,0,0,1,717,77a10.18,10.18,0,0,1,.89,4.14,10.36,10.36,0,0,1-.85,4.19,10.89,10.89,0,0,1-2.33,3.45,11,11,0,0,1-3.44,2.35,10.56,10.56,0,0,1-11.71-2.3Zm17,26.38v64a24.93,24.93,0,0,1-.59,6.06,7.52,7.52,0,0,1-1.91,3.59,7,7,0,0,1-3.44,1.75,24.45,24.45,0,0,1-5.17.47q-4.08,0-5.52-2t-1.44-6.19V111.54c0-2.78.48-4.85,1.44-6.18s2.8-2,5.52-2q5.68,0,8.4,2.86T716.57,115.22Z"/><image class="cls-3" width="1070" height="1426" transform="translate(-60 -60) scale(0.24)" xlink:href="logo-white1.png"/><path class="cls-4" d="M76.08,222.09c16.42-2.06,38.66-14.25,46.39-24,10.75-13.59,14.55-25.79,14.28-35.88-.67,4.07-6.77,15.44-15.52,19.18,12.43-10.26,27-52.61,1.21-94.18,2.51,6.28,5,28.27-12.37,51.61,9.85-13.21,17.2-53.84-13-100.48,1,3.06,4.26,10,.15,22.09C98.1,47.13,83.37,11.15,55.76,0c21.62,24.27,8.08,54.61,0,73.7-4.15,9.77-2.65,18.27-3,25.06-.67-5.77.87-27.47-12.86-39.4,3.67,5,2.9,17.36-1.94,24.7-6.68,10.13-34.23,32.15-18.6,61.19-4.22-.63-11.18-11.53-7.89-24.78-13.63,19-.71,44.68,6.38,51.13C4.85,167.91-.32,152.78,0,149.38c0,6.79.93,14.76,3.11,20.31,18.35,46.63,53.6,52,70.38,52.4Z"/><image class="cls-3" width="804" height="1239" transform="translate(-18.24 -15.12) scale(0.24)" xlink:href="logo-white2.png"/><path class="cls-5" d="M72.86,221.82c-11.3-8.26-16.21-13.16-23.72-23.86-8.21-11.7-9-29.07-4.5-42.66,4.2-13,12-23.79,19.21-35.57s14.72-21.79,18-35.38c3-12.69,2.9-30.2-3.1-39.34,8.8,11.24,16.31,30,19.61,46,1.5,8.76,2.4,18.73,0,27.49-2.1,9.36-9.3,16.48-13.51,25.54s-5.13,26,1.18,34.42c7.8-5.43,22.54-11.61,24.34-26.73,19.52,41.48-35.51,51-34.31,70.34Z"/><path class="cls-2" d="M80.63,35.74c-2.85-4.65-7.46-9.56-5.81-6.11C76,32,80.85,39.88,83,42.29,85.35,44.86,82.73,39.17,80.63,35.74Z"/></g></g></svg>